<svg width="1200" height="760" viewBox="0 0 1200 760" fill="none" xmlns="http://www.w3.org/2000/svg">
  <rect width="1200" height="760" rx="30" fill="#0A1020"/>
  <rect x="24" y="24" width="1152" height="712" rx="22" fill="url(#bg)"/>
  <rect x="60" y="76" width="260" height="620" rx="16" fill="#101A33" stroke="#2B3A66"/>
  <rect x="350" y="76" width="790" height="170" rx="16" fill="#111C37" stroke="#2A3D6F"/>
  <rect x="350" y="270" width="380" height="200" rx="16" fill="#0E1830" stroke="#2B3B66"/>
  <rect x="760" y="270" width="380" height="200" rx="16" fill="#0E1830" stroke="#2B3B66"/>
  <rect x="350" y="496" width="790" height="200" rx="16" fill="#0E1830" stroke="#2B3B66"/>
  <rect x="86" y="118" width="208" height="14" rx="7" fill="#6FD3FF"/>
  <rect x="86" y="162" width="180" height="12" rx="6" fill="#7F89FF" fill-opacity="0.8"/>
  <rect x="86" y="201" width="195" height="12" rx="6" fill="#7F89FF" fill-opacity="0.8"/>
  <rect x="86" y="240" width="170" height="12" rx="6" fill="#7F89FF" fill-opacity="0.8"/>
  <rect x="386" y="112" width="188" height="16" rx="8" fill="#89C7FF"/>
  <rect x="386" y="148" width="320" height="10" rx="5" fill="#6A7FB0"/>
  <rect x="386" y="174" width="280" height="10" rx="5" fill="#6A7FB0"/>
  <path d="M386 420C430 360 475 390 517 334C560 280 609 335 650 303C690 271 724 307 728 307" stroke="#6FD3FF" stroke-width="4" stroke-linecap="round"/>
  <path d="M786 421C830 380 875 408 916 366C957 323 1000 352 1036 320C1072 290 1110 316 1130 296" stroke="#9D8DFF" stroke-width="4" stroke-linecap="round"/>
  <rect x="388" y="536" width="330" height="14" rx="7" fill="#9ACFFF"/>
  <rect x="388" y="566" width="710" height="11" rx="5.5" fill="#5D6F9F"/>
  <rect x="388" y="591" width="690" height="11" rx="5.5" fill="#5D6F9F"/>
  <rect x="388" y="616" width="720" height="11" rx="5.5" fill="#5D6F9F"/>
  <defs>
    <linearGradient id="bg" x1="24" y1="24" x2="1176" y2="736" gradientUnits="userSpaceOnUse">
      <stop stop-color="#0F1830"/>
      <stop offset="1" stop-color="#0A1226"/>
    </linearGradient>
  </defs>
</svg>
