<svg width="1200" height="760" viewBox="0 0 1200 760" fill="none" xmlns="http://www.w3.org/2000/svg">
  <rect width="1200" height="760" rx="30" fill="#080D1A"/>
  <rect x="24" y="24" width="1152" height="712" rx="22" fill="url(#bg)"/>
  <rect x="90" y="250" width="300" height="220" rx="20" fill="#101B35" stroke="#2E4472"/>
  <rect x="450" y="120" width="300" height="220" rx="20" fill="#101B35" stroke="#2E4472"/>
  <rect x="450" y="390" width="300" height="220" rx="20" fill="#101B35" stroke="#2E4472"/>
  <rect x="810" y="250" width="300" height="220" rx="20" fill="#101B35" stroke="#2E4472"/>
  <rect x="120" y="290" width="150" height="18" rx="9" fill="#6FD3FF"/>
  <rect x="480" y="160" width="170" height="18" rx="9" fill="#9D8DFF"/>
  <rect x="480" y="430" width="150" height="18" rx="9" fill="#68F2C0"/>
  <rect x="840" y="290" width="180" height="18" rx="9" fill="#89C7FF"/>
  <rect x="120" y="332" width="238" height="11" rx="5.5" fill="#5F739F"/>
  <rect x="120" y="359" width="228" height="11" rx="5.5" fill="#5F739F"/>
  <rect x="120" y="386" width="250" height="11" rx="5.5" fill="#5F739F"/>
  <rect x="480" y="202" width="236" height="11" rx="5.5" fill="#5F739F"/>
  <rect x="480" y="229" width="250" height="11" rx="5.5" fill="#5F739F"/>
  <rect x="480" y="472" width="248" height="11" rx="5.5" fill="#5F739F"/>
  <rect x="480" y="499" width="228" height="11" rx="5.5" fill="#5F739F"/>
  <rect x="840" y="332" width="244" height="11" rx="5.5" fill="#5F739F"/>
  <rect x="840" y="359" width="224" height="11" rx="5.5" fill="#5F739F"/>
  <path d="M390 360H450" stroke="#6FD3FF" stroke-width="4" stroke-linecap="round"/>
  <path d="M750 360H810" stroke="#6FD3FF" stroke-width="4" stroke-linecap="round"/>
  <path d="M600 340V390" stroke="#9D8DFF" stroke-width="4" stroke-linecap="round"/>
  <circle cx="420" cy="360" r="8" fill="#6FD3FF"/>
  <circle cx="780" cy="360" r="8" fill="#6FD3FF"/>
  <circle cx="600" cy="365" r="8" fill="#9D8DFF"/>
  <defs>
    <linearGradient id="bg" x1="24" y1="24" x2="1176" y2="736" gradientUnits="userSpaceOnUse">
      <stop stop-color="#0C162E"/>
      <stop offset="1" stop-color="#0A1123"/>
    </linearGradient>
  </defs>
</svg>
