<svg width="1200" height="760" viewBox="0 0 1200 760" fill="none" xmlns="http://www.w3.org/2000/svg">
  <rect width="1200" height="760" rx="30" fill="#090E1C"/>
  <rect x="24" y="24" width="1152" height="712" rx="22" fill="url(#bg)"/>
  <rect x="58" y="72" width="1084" height="70" rx="14" fill="#111C37" stroke="#2D426F"/>
  <rect x="58" y="164" width="1084" height="532" rx="16" fill="#0E172D" stroke="#273A64"/>
  <rect x="84" y="98" width="240" height="16" rx="8" fill="#A4D9FF"/>
  <rect x="960" y="95" width="156" height="22" rx="11" fill="#1A2B51" stroke="#3F5FA3"/>
  <rect x="84" y="196" width="170" height="14" rx="7" fill="#6FD3FF"/>
  <rect x="84" y="229" width="1032" height="10" rx="5" fill="#5B6D99"/>
  <rect x="84" y="258" width="1032" height="10" rx="5" fill="#5B6D99"/>
  <rect x="84" y="287" width="1032" height="10" rx="5" fill="#5B6D99"/>
  <rect x="84" y="316" width="1032" height="10" rx="5" fill="#5B6D99"/>
  <rect x="84" y="345" width="1032" height="10" rx="5" fill="#5B6D99"/>
  <rect x="84" y="374" width="1032" height="10" rx="5" fill="#5B6D99"/>
  <rect x="84" y="403" width="1032" height="10" rx="5" fill="#5B6D99"/>
  <rect x="84" y="432" width="1032" height="10" rx="5" fill="#5B6D99"/>
  <rect x="84" y="461" width="1032" height="10" rx="5" fill="#5B6D99"/>
  <rect x="84" y="490" width="1032" height="10" rx="5" fill="#5B6D99"/>
  <rect x="84" y="519" width="1032" height="10" rx="5" fill="#5B6D99"/>
  <rect x="84" y="548" width="1032" height="10" rx="5" fill="#5B6D99"/>
  <rect x="84" y="577" width="1032" height="10" rx="5" fill="#5B6D99"/>
  <rect x="84" y="606" width="1032" height="10" rx="5" fill="#5B6D99"/>
  <circle cx="98" cy="234" r="6" fill="#68F2C0"/>
  <circle cx="98" cy="292" r="6" fill="#68F2C0"/>
  <circle cx="98" cy="350" r="6" fill="#68F2C0"/>
  <circle cx="98" cy="408" r="6" fill="#9D8DFF"/>
  <circle cx="98" cy="466" r="6" fill="#6FD3FF"/>
  <circle cx="98" cy="524" r="6" fill="#68F2C0"/>
  <circle cx="98" cy="582" r="6" fill="#9D8DFF"/>
  <defs>
    <linearGradient id="bg" x1="24" y1="24" x2="1176" y2="736" gradientUnits="userSpaceOnUse">
      <stop stop-color="#0D1730"/>
      <stop offset="1" stop-color="#091327"/>
    </linearGradient>
  </defs>
</svg>
